<svg xmlns="http://www.w3.org/2000/svg" width="28" height="28" viewBox="0 0 28 28" fill="none">
  <path d="M23.3335 14V8.16666H25.6668V15.1667H23.3335M23.3335 19.8333H25.6668V17.5H23.3335M11.6668 15.1667C14.7818 15.1667 21.0002 16.73 21.0002 19.8333V23.3333H2.3335V19.8333C2.3335 16.73 8.55183 15.1667 11.6668 15.1667ZM11.6668 4.66666C12.9045 4.66666 14.0915 5.15832 14.9667 6.03349C15.8418 6.90866 16.3335 8.09565 16.3335 9.33332C16.3335 10.571 15.8418 11.758 14.9667 12.6332C14.0915 13.5083 12.9045 14 11.6668 14C10.4292 14 9.24217 13.5083 8.367 12.6332C7.49183 11.758 7.00016 10.571 7.00016 9.33332C7.00016 8.09565 7.49183 6.90866 8.367 6.03349C9.24217 5.15832 10.4292 4.66666 11.6668 4.66666ZM11.6668 17.3833C8.20183 17.3833 4.55016 19.0867 4.55016 19.8333V21.1167H18.7835V19.8333C18.7835 19.0867 15.1318 17.3833 11.6668 17.3833ZM11.6668 6.88332C11.017 6.88332 10.3939 7.14145 9.93442 7.60091C9.47495 8.06038 9.21683 8.68354 9.21683 9.33332C9.21683 9.9831 9.47495 10.6063 9.93442 11.0657C10.3939 11.5252 11.017 11.7833 11.6668 11.7833C12.3166 11.7833 12.9398 11.5252 13.3992 11.0657C13.8587 10.6063 14.1168 9.9831 14.1168 9.33332C14.1168 8.68354 13.8587 8.06038 13.3992 7.60091C12.9398 7.14145 12.3166 6.88332 11.6668 6.88332Z" fill="black"/>
</svg>